HIERARCHY
ROOT Pelvis
{
	OFFSET 0.000000 0.000000 0.000000
	CHANNELS 6 Xposition Yposition Zposition Xrotation Yrotation Zrotation
	JOINT LeftUpLeg_virtual
	{
		OFFSET 0.000000 0.000000 0.000000
		CHANNELS 3 Xrotation Yrotation Zrotation
		JOINT LeftUpLeg
		{
			OFFSET 8.479700 -4.795502 -0.379100
			CHANNELS 3 Xrotation Yrotation Zrotation
			JOINT LeftLeg
			{
				OFFSET 0.024144 -32.555107 0.112900
				CHANNELS 3 Xrotation Yrotation Zrotation
				JOINT LeftFoot
				{
					OFFSET -0.024144 -32.638630 -3.012600
					CHANNELS 3 Xrotation Yrotation Zrotation
					JOINT LeftToeBase
					{
						OFFSET 0.970200 -13.225400 11.864200
						CHANNELS 3 Xrotation Yrotation Zrotation
						End Site
						{
							OFFSET 0 0 0
						}
					}
				}
			}
		}
	}
	JOINT RightUpLeg_virtual
	{
		OFFSET 0.000000 0.000000 0.000000
		CHANNELS 3 Xrotation Yrotation Zrotation
		JOINT RightUpLeg
		{
			OFFSET -8.479700 -4.795502 -0.379100
			CHANNELS 3 Xrotation Yrotation Zrotation
			JOINT RightLeg
			{
				OFFSET -0.023144 -32.555092 0.112900
				CHANNELS 3 Xrotation Yrotation Zrotation
				JOINT RightFoot
				{
					OFFSET 0.023144 -32.638641 -3.012700
					CHANNELS 3 Xrotation Yrotation Zrotation
					JOINT RightToeBase
					{
						OFFSET -0.970200 -13.225400 11.864200
						CHANNELS 3 Xrotation Yrotation Zrotation
						End Site
						{
							OFFSET 0 0 0
						}
					}
				}
			}
		}
	}
	JOINT Hips_virtual
	{
		OFFSET 0.000000 0.000000 0.000000
		CHANNELS 3 Xrotation Yrotation Zrotation
		JOINT Hips
		{
			OFFSET -0.000000 -0.000000 -0.000000
			CHANNELS 3 Xrotation Yrotation Zrotation
			JOINT Spine
			{
				OFFSET 0.000000 7.722000 1.166200
				CHANNELS 3 Xrotation Yrotation Zrotation
				JOINT Spine1
				{
					OFFSET 0.000000 12.024101 0.248800
					CHANNELS 3 Xrotation Yrotation Zrotation
					JOINT Spine2
					{
						OFFSET 0.000000 11.502998 -0.491200
						CHANNELS 3 Xrotation Yrotation Zrotation
						JOINT Neck_virtual
						{
							OFFSET 0.000000 0.000000 0.000000
							CHANNELS 3 Xrotation Yrotation Zrotation
							JOINT Neck
							{
								OFFSET 0.000000 18.430702 -3.123100
								CHANNELS 3 Xrotation Yrotation Zrotation
								JOINT Head
								{
									OFFSET 0.000000 9.051102 1.034000
									CHANNELS 3 Xrotation Yrotation Zrotation
									End Site
									{
										OFFSET 0 0 0
									}
								}
							}
						}
						JOINT LeftShoulder_virtual
						{
							OFFSET 0.000000 0.000000 0.000000
							CHANNELS 3 Xrotation Yrotation Zrotation
							JOINT LeftShoulder
							{
								OFFSET 6.197800 13.665199 -4.064700
								CHANNELS 3 Xrotation Yrotation Zrotation
								JOINT LeftArm
								{
									OFFSET 7.778100 -0.187103 -1.709300
									CHANNELS 3 Xrotation Yrotation Zrotation
									JOINT LeftForeArm
									{
										OFFSET 22.049376 0.000000 0.000000
										CHANNELS 3 Xrotation Yrotation Zrotation
										JOINT LeftHand
										{
											OFFSET 23.009392 0.000000 0.000000
											CHANNELS 3 Xrotation Yrotation Zrotation
											End Site
											{
												OFFSET 0 0 0
											}
										}
									}
								}
							}
						}
						JOINT RightShoulder_virtual
						{
							OFFSET 0.000000 0.000000 0.000000
							CHANNELS 3 Xrotation Yrotation Zrotation
							JOINT RightShoulder
							{
								OFFSET -6.197800 13.665199 -4.064700
								CHANNELS 3 Xrotation Yrotation Zrotation
								JOINT RightArm
								{
									OFFSET -7.778100 -0.187103 -1.709300
									CHANNELS 3 Xrotation Yrotation Zrotation
									JOINT RightForeArm
									{
										OFFSET -22.049376 0.000000 0.000000
										CHANNELS 3 Xrotation Yrotation Zrotation
										JOINT RightHand
										{
											OFFSET -23.009392 0.000000 0.000000
											CHANNELS 3 Xrotation Yrotation Zrotation
											End Site
											{
												OFFSET 0 0 0
											}
										}
									}
								}
							}
						}
					}
				}
			}
		}
	}
}
MOTION
Frames: 13
Frame Time: 0.03333333
-0.258333 77.263023 0.131954 0.000000 0.000000 0.000000 -6.087189 -43.034963 -4.015852 -27.324974 5.711071 13.933701 33.960104 -14.110940 -0.201469 -4.092881 0.706245 -8.143559 0.000000 0.000000 0.000000 -6.087189 -43.034963 -4.015852 -4.368538 -13.685382 -15.656814 32.702481 -9.020059 -0.425647 -20.500908 -4.052734 17.150742 0.000000 0.000000 0.000000 -6.087189 -43.034963 -4.015852 0.000000 -0.000002 0.000000 5.833957 4.645113 -1.245102 11.836539 9.037612 -3.083968 0.000000 0.000000 0.000000 11.836549 9.037612 -3.083968 -4.303055 -1.272944 0.206308 0.000000 0.000000 0.000000 11.836549 9.037612 -3.083968 1.392461 -0.696059 -7.877847 -14.260089 2.394341 -63.277092 9.865066 -47.524934 5.927927 0.000000 0.000000 0.000000 11.836549 9.037612 -3.083968 1.410917 9.461498 9.792738 1.220044 -24.270696 60.532920 -6.660700 41.858408 8.043844 0.000000 0.000000 0.000000 
-0.271663 77.241264 0.134129 0.000000 0.000000 0.000000 -5.904505 -43.018174 -3.856991 -27.485334 5.647079 13.882324 34.034874 -14.046764 -0.189454 -4.123809 0.711265 -8.193982 0.000000 0.000000 0.000000 -5.904505 -43.018174 -3.856991 -4.640031 -13.617097 -15.650007 32.984264 -9.380813 -0.473981 -20.550801 -4.067245 17.156960 0.000000 0.000000 0.000000 -5.904505 -43.018174 -3.856991 0.000000 0.000001 0.000000 5.784608 4.561281 -1.266365 11.734903 8.869609 -3.113898 0.000000 0.000000 0.000000 11.734905 8.869615 -3.113900 -4.165998 -0.932305 0.146253 0.000000 0.000000 0.000000 11.734905 8.869615 -3.113900 1.386619 -0.844138 -7.964506 -14.201889 2.560090 -62.985348 9.704252 -47.394450 5.847713 0.000000 0.000000 0.000000 11.734905 8.869615 -3.113900 1.382081 9.291156 9.911530 1.351748 -24.130088 60.409861 -6.095261 41.947194 7.777804 0.000000 0.000000 0.000000 
-0.279358 77.222504 0.138273 0.000000 0.000000 0.000000 -5.666835 -42.944951 -3.653114 -27.690060 5.570870 13.798999 34.092807 -13.996220 -0.176521 -4.134439 0.714989 -8.239039 0.000000 0.000000 0.000000 -5.666835 -42.944951 -3.653114 -4.929186 -13.540253 -15.624992 33.259613 -9.829921 -0.533679 -20.589914 -4.085742 17.173262 0.000000 0.000000 0.000000 -5.666835 -42.944951 -3.653114 0.000000 0.000000 0.000000 5.733499 4.475105 -1.289576 11.629823 8.696602 -3.147943 0.000000 0.000000 0.000000 11.629808 8.696629 -3.147947 -4.189972 -0.576356 0.043483 0.000000 0.000000 0.000000 11.629808 8.696629 -3.147947 1.380128 -0.996768 -8.053119 -14.173308 2.709396 -62.680899 9.587337 -47.246683 5.801154 0.000000 0.000000 0.000000 11.629808 8.696629 -3.147947 1.353092 9.120822 10.030859 1.496275 -24.000622 60.284950 -5.499473 42.033121 7.478093 0.000000 0.000000 0.000000 
-0.281798 77.206322 0.144741 0.000000 0.000000 0.000000 -5.377737 -42.818125 -3.416876 -27.943093 5.472651 13.695598 34.145342 -13.994808 -0.162934 -4.127622 0.716201 -8.264678 0.000000 0.000000 0.000000 -5.377737 -42.818125 -3.416876 -5.230372 -13.456310 -15.572456 33.522032 -10.364631 -0.603745 -20.613023 -4.107342 17.201468 0.000000 0.000000 0.000000 -5.377737 -42.818125 -3.416876 0.000000 0.000001 0.000000 5.681555 4.387458 -1.310505 11.522930 8.520894 -3.178271 0.000000 0.000000 0.000000 11.522930 8.520903 -3.178271 -4.372948 -0.187672 -0.099258 0.000000 0.000000 0.000000 11.522930 8.520903 -3.178271 1.373128 -1.153253 -8.144306 -14.167252 2.845059 -62.375781 9.516533 -47.090377 5.789309 0.000000 0.000000 0.000000 11.522930 8.520903 -3.178271 1.325405 8.962436 10.136576 1.656980 -23.878761 60.164978 -4.869298 42.117726 7.144444 0.000000 0.000000 0.000000 
-0.280465 77.190872 0.152983 0.000000 0.000000 0.000000 -5.042169 -42.637121 -3.162435 -28.239600 5.342366 13.589011 34.186183 -14.070578 -0.149474 -4.098751 0.717145 -8.298809 0.000000 0.000000 0.000000 -5.042169 -42.637121 -3.162435 -5.535938 -13.368487 -15.482669 33.767035 -10.981599 -0.683680 -20.618622 -4.132353 17.247742 0.000000 0.000000 0.000000 -5.042169 -42.637121 -3.162435 0.000000 0.000000 0.000000 5.630711 4.298739 -1.325511 11.417961 8.343455 -3.198493 0.000000 0.000000 0.000000 11.417958 8.343450 -3.198490 -4.712089 0.239337 -0.274420 0.000000 0.000000 0.000000 11.417958 8.343450 -3.198490 1.365569 -1.313363 -8.238629 -14.177982 2.972077 -62.078189 9.495121 -46.935964 5.816209 0.000000 0.000000 0.000000 11.417958 8.343450 -3.198490 1.299698 8.823661 10.220374 1.828179 -23.749584 60.051686 -4.197123 42.197780 6.777233 0.000000 0.000000 0.000000 
-0.278233 77.172699 0.161102 0.000000 0.000000 0.000000 -4.671855 -42.402033 -2.904307 -28.584384 5.178544 13.483499 34.241152 -14.179342 -0.135378 -4.061900 0.716205 -8.325966 0.000000 0.000000 0.000000 -4.671855 -42.402033 -2.904307 -5.840035 -13.281450 -15.352899 34.001962 -11.670140 -0.772343 -20.613572 -4.161382 17.316587 0.000000 0.000000 0.000000 -4.671855 -42.402033 -2.904307 0.000000 0.000000 0.000000 5.583242 4.209089 -1.333904 11.319468 8.164373 -3.207699 0.000000 0.000000 0.000000 11.319464 8.164378 -3.207699 -5.175436 0.695296 -0.473785 0.000000 0.000000 0.000000 11.319464 8.164378 -3.207699 1.357313 -1.477595 -8.335197 -14.200421 3.094770 -61.787421 9.515668 -46.790163 5.877792 0.000000 0.000000 0.000000 11.319464 8.164378 -3.207699 1.275549 8.698529 10.287013 1.992764 -23.588851 59.940709 -3.483569 42.269076 6.384980 0.000000 0.000000 0.000000 
-0.277459 77.149086 0.166620 0.000000 0.000000 0.000000 -4.273743 -42.101904 -2.649627 -28.991216 4.988378 13.367488 34.343714 -14.217945 -0.119546 -4.034750 0.710908 -8.304587 0.000000 0.000000 0.000000 -4.273743 -42.101904 -2.649627 -6.139932 -13.197607 -15.178096 34.239930 -12.437476 -0.871055 -20.607422 -4.193971 17.406630 0.000000 0.000000 0.000000 -4.273743 -42.101904 -2.649627 0.000000 -0.000001 0.000000 5.540632 4.118618 -1.336995 11.230594 7.983835 -3.208965 0.000000 0.000000 0.000000 11.230587 7.983858 -3.208966 -5.737457 1.166994 -0.702394 0.000000 0.000000 0.000000 11.230587 7.983858 -3.208966 1.348211 -1.648000 -8.431669 -14.236276 3.204025 -61.492234 9.570508 -46.641504 5.961895 0.000000 0.000000 0.000000 11.230587 7.983858 -3.208966 1.252413 8.568985 10.347235 2.131727 -23.375301 59.828414 -2.736079 42.328694 5.976060 0.000000 0.000000 0.000000 
-0.280036 77.121010 0.166489 0.000000 0.000000 0.000000 -3.850429 -41.713734 -2.404395 -29.466693 4.774664 13.234468 34.496758 -14.147472 -0.102213 -4.016453 0.700064 -8.216489 0.000000 0.000000 0.000000 -3.850429 -41.713734 -2.404395 -6.428881 -13.115236 -14.938857 34.488040 -13.320010 -0.984289 -20.605151 -4.226080 17.504248 0.000000 0.000000 0.000000 -3.850429 -41.713734 -2.404395 0.000000 -0.000002 0.000000 5.504111 4.028547 -1.335165 11.153971 7.804151 -3.204063 0.000000 0.000000 0.000000 11.153961 7.804145 -3.204062 -6.397790 1.644551 -0.973276 0.000000 0.000000 0.000000 11.153961 7.804145 -3.204062 1.337885 -1.827778 -8.524941 -14.295896 3.265236 -61.170819 9.669279 -46.448783 6.049832 0.000000 0.000000 0.000000 11.153961 7.804145 -3.204062 1.230540 8.415839 10.403937 2.228811 -23.095718 59.721753 -1.960298 42.366400 5.549521 0.000000 0.000000 0.000000 
-0.288943 77.093056 0.157640 0.000000 0.000000 0.000000 -3.410672 -41.215844 -2.181073 -29.983096 4.519400 13.106657 34.639380 -14.150476 -0.085740 -3.970265 0.686605 -8.122814 0.000000 0.000000 0.000000 -3.410672 -41.215844 -2.181073 -6.683919 -13.030030 -14.607813 34.729999 -14.360551 -1.116800 -20.599292 -4.252989 17.600004 0.000000 0.000000 0.000000 -3.410672 -41.215844 -2.181073 0.000000 0.000000 0.000000 5.476403 3.940306 -1.327569 11.095127 7.627875 -3.192235 0.000000 0.000000 0.000000 11.095116 7.627866 -3.192232 -7.173735 2.120069 -1.287961 0.000000 0.000000 0.000000 11.095116 7.627866 -3.192232 1.326145 -2.019144 -8.612886 -14.393341 3.225560 -60.788834 9.841983 -46.156281 6.121506 0.000000 0.000000 0.000000 11.095116 7.627866 -3.192232 1.211027 8.233971 10.448829 2.261740 -22.732109 59.638097 -1.145731 42.342668 5.091093 0.000000 0.000000 0.000000 
-0.308256 77.069778 0.138538 0.000000 0.000000 0.000000 -2.973046 -40.595352 -1.990030 -30.481410 4.193537 13.018838 34.668421 -14.565665 -0.072607 -3.835972 0.675812 -8.138595 0.000000 0.000000 0.000000 -2.973046 -40.595352 -1.990030 -6.868267 -12.936746 -14.174003 34.928085 -15.577923 -1.271413 -20.572794 -4.277347 17.714598 0.000000 0.000000 0.000000 -2.973046 -40.595352 -1.990030 0.000000 -0.000001 0.000000 5.462534 3.853351 -1.316498 11.064176 7.453654 -3.177412 0.000000 0.000000 0.000000 11.064175 7.453651 -3.177408 -8.085639 2.580549 -1.630788 0.000000 0.000000 0.000000 11.064175 7.453651 -3.177408 1.312771 -2.223651 -8.693969 -14.544328 3.027123 -60.290380 10.119752 -45.719613 6.155166 0.000000 0.000000 0.000000 11.064175 7.453651 -3.177408 1.194106 8.035233 10.474627 2.191180 -22.243985 59.599602 -0.263548 42.183030 4.581389 0.000000 0.000000 0.000000 
-0.337371 77.049217 0.113571 0.000000 0.000000 0.000000 -2.548666 -39.847293 -1.815158 -30.946440 3.819905 12.943728 34.565518 -15.416355 -0.060475 -3.596478 0.665941 -8.249576 0.000000 0.000000 0.000000 -2.548666 -39.847293 -1.815158 -6.958999 -12.831263 -13.674829 35.045158 -16.943114 -1.446770 -20.506987 -4.318066 17.925893 0.000000 0.000000 0.000000 -2.548666 -39.847293 -1.815158 0.000000 0.000001 0.000000 5.467081 3.763789 -1.311461 11.070388 7.272869 -3.175250 0.000000 0.000000 0.000000 11.070389 7.272859 -3.175247 -9.140975 3.007751 -1.977918 0.000000 0.000000 0.000000 11.070389 7.272859 -3.175247 1.297669 -2.444336 -8.765166 -14.768985 2.625833 -59.603209 10.495871 -45.137623 6.126681 0.000000 0.000000 0.000000 11.070389 7.272859 -3.175247 1.178229 7.843953 10.488036 1.974474 -21.571346 59.624594 0.713795 41.833549 4.016059 0.000000 0.000000 0.000000 
-0.364401 77.022476 0.096518 0.000000 0.000000 0.000000 -2.116800 -38.964330 -1.609001 -31.515220 3.527836 12.726366 34.586784 -15.988061 -0.034815 -3.356392 0.634990 -8.027151 0.000000 0.000000 0.000000 -2.116800 -38.964330 -1.609001 -6.972842 -12.716859 -13.185252 35.062766 -18.399635 -1.637320 -20.384447 -4.403572 18.339321 0.000000 0.000000 0.000000 -2.116800 -38.964330 -1.609001 0.000000 -0.000004 0.000000 5.489867 3.666839 -1.324425 11.113443 7.075272 -3.204946 0.000000 0.000000 0.000000 11.113443 7.075272 -3.204945 -10.326863 3.385112 -2.311441 0.000000 0.000000 0.000000 11.113443 7.075272 -3.204945 1.280287 -2.687784 -8.820079 -15.099433 1.994443 -58.670594 10.919238 -44.445752 6.016719 0.000000 0.000000 0.000000 11.113443 7.075272 -3.204945 1.160730 7.687490 10.502669 1.599556 -20.667997 59.719971 1.786333 41.346745 3.417433 0.000000 0.000000 0.000000 
-0.370818 76.979286 0.108400 0.000000 0.000000 0.000000 -1.617837 -37.934153 -1.321610 -32.304015 3.530643 12.237249 34.881831 -15.004995 0.025315 -3.140045 0.590429 -7.474489 0.000000 0.000000 0.000000 -1.617837 -37.934153 -1.321610 -6.969649 -12.620433 -12.768241 34.987986 -19.895310 -1.832877 -20.194487 -4.553317 19.014991 0.000000 0.000000 0.000000 -1.617837 -37.934153 -1.321610 0.000000 0.000001 0.000000 5.523393 3.561226 -1.355168 11.178895 6.857999 -3.272968 0.000000 0.000000 0.000000 11.178893 6.857991 -3.272965 -11.605454 3.702513 -2.623473 0.000000 0.000000 0.000000 11.178893 6.857991 -3.272965 1.260333 -2.962288 -8.850011 -15.587042 1.113176 -57.485310 11.323038 -43.687891 5.826238 0.000000 0.000000 0.000000 11.178893 6.857991 -3.272965 1.140334 7.594842 10.521328 1.098663 -19.528821 59.870412 2.917288 40.919981 2.828928 0.000000 0.000000 0.000000 
